<svg aria-hidden="true" style="position: absolute; width: 0; height: 0; overflow: hidden;" version="1.1" xmlns="http://www.w3.org/2000/svg" xmlns:xlink="http://www.w3.org/1999/xlink">
<defs>
<symbol id="icon-dogcat" viewBox="0 0 163 32">
<path fill="#599cc9" style="fill: var(--color1, #599cc9)" d="M11.462 29.229c0.459 0.234 2.539 0.498 3.52 0.447-0.011-0.051-0.032-0.112-0.053-0.163-0.843-1.402-1.312-2.976-1.376-4.581-0.139-1.371-0.096-2.743 0.128-4.104 0.203-1.046 0.533-2.072 0.768-3.109 0.245-0.945 0.427-1.9 0.544-2.865 0.128-1.229-0.523-2.133-1.6-2.783-0.992-0.589-2.112-0.864-3.189-1.239-0.512-0.193-1.003-0.437-1.461-0.731-0.363-0.244-0.587-0.64-0.608-1.067-0.011-0.102-0.064-0.193-0.149-0.254-1.387-0.549-1.963-1.636-2.208-2.956-0.128-0.62-0.075-1.26 0.139-1.859 0.032-0.081 0.011-0.163-0.032-0.234-0.533-0.457-0.437-0.975-0.171-1.503 0.299-0.589 0.48-0.691 1.163-0.599 1.365 0.183 2.709 0.396 4.075 0.579 0.32 0.041 0.64 0.051 0.96 0.030 0.331 0 0.629-0.173 0.789-0.447 0.277-0.447 0.576-0.884 0.896-1.3 0.128-0.152 0.309-0.264 0.512-0.315 1.451-0.254 2.944-0.234 4.384 0.071 1.045 0.193 2.080 0.416 3.115 0.65 0.693 0.152 1.259 0.62 1.515 1.25 0.075 0.142 0.213 0.244 0.384 0.264 0.843 0.244 1.696 0.477 2.528 0.752 0.779 0.203 1.312 0.894 1.28 1.666 0.032 1.229 0.149 2.448 0.192 3.677 0.021 0.64-0.16 1.28-0.523 1.829-0.224 0.386-0.597 0.671-1.045 0.792-0.277 0.091-0.576-0.051-0.672-0.315-0.096-0.254 0.043-0.538 0.309-0.63 0.021-0.010 0.032-0.010 0.053-0.010 0.512-0.234 0.821-0.731 0.779-1.26 0.053-0.864 0.021-1.727-0.011-2.59-0.021-0.498-0.139-0.985-0.149-1.483 0.021-0.335-0.213-0.64-0.555-0.721-0.587-0.203-1.184-0.396-1.781-0.579-0.363-0.102-0.757-0.142-1.12-0.254-0.192-0.061-0.363-0.183-0.448-0.356-0.192-0.62-0.736-1.077-1.408-1.178-1.749-0.366-3.488-0.762-5.301-0.721-0.331 0-0.661 0.030-0.992 0.081-0.149 0.041-0.277 0.122-0.373 0.244-0.224 0.274-0.427 0.559-0.597 0.863-0.501 0.914-1.365 1.107-2.336 1.036-0.629-0.051-1.259-0.203-1.888-0.295-0.832-0.122-1.664-0.224-2.507-0.325-0.128 0-0.245 0.061-0.32 0.152-0.043 0.061 0.021 0.213 0.085 0.295 0.096 0.132 0.267 0.223 0.331 0.366 0.085 0.152 0.107 0.335 0.053 0.498-0.533 0.874-0.352 1.747-0.021 2.611 0.267 0.711 0.896 1.25 1.675 1.422 0.533 0.152 0.597 0.325 0.48 0.833-0.021 0.183 0.043 0.366 0.181 0.498 0.373 0.406 0.939 0.498 1.44 0.681 0.928 0.295 1.835 0.64 2.72 1.036 2.101 1.067 2.859 2.702 2.357 4.917-0.341 1.503-0.757 2.997-1.109 4.5-0.277 1.422-0.352 2.875-0.213 4.307 0.032 1.27 0.352 2.519 0.917 3.677 0.128 0.244 0.288 0.477 0.405 0.721 0.149 0.356 0.576 0.538 0.949 0.406 2.784-0.396 5.376-1.595 7.413-3.444 2.027-1.818 3.424-4.185 3.989-6.776 0.213-0.508-0.011-1.087-0.512-1.341-1.323-0.863-2.464-1.961-3.371-3.22-0.661-1.006-1.045-2.143-1.109-3.332-0.043-0.528-0.011-1.056-0.032-1.585-0.011-0.102-0.064-0.193-0.16-0.244-0.843-0.274-1.461-0.955-1.632-1.778-0.096-0.345-0.16-0.691-0.192-1.046-0.053-0.254 0.117-0.508 0.395-0.559 0.032-0.010 0.053-0.010 0.085-0.010 0.288-0.030 0.491 0.193 0.565 0.508 0.096 0.457 0.224 0.904 0.384 1.341 0.128 0.213 0.288 0.406 0.48 0.569 0.032-0.203 0.043-0.315 0.064-0.416 0.032-0.254 0.256-0.447 0.523-0.437 0.277 0.010 0.501 0.223 0.512 0.488-0.011 0.234 0.021 0.467 0.064 0.691 0.085 0.284 0.235 0.559 0.416 0.803 0.181 0.223 0.32 0.406 0.192 0.681s-0.373 0.295-0.672 0.274c0 0.914 0.181 1.829 0.544 2.682 0.256 0.65 0.661 1.239 1.184 1.717 0.715 0.65 1.44 1.3 2.155 1.951 0.107 0.081 0.224 0.162 0.341 0.234 0-0.61 0.043-1.178-0.011-1.737-0.139-1.575-0.576-3.098-1.312-4.511-0.192-0.264-0.128-0.64 0.16-0.823 0.021-0.010 0.043-0.030 0.064-0.041 0.352-0.163 0.672-0.030 0.875 0.366 1.088 2.093 1.589 4.409 1.461 6.735-0.256 4.693-2.453 8.391-6.475 11.083-2.155 1.453-4.704 2.286-7.339 2.418-4.608 0.356-9.12-1.381-12.16-4.693-2.005-2.082-3.275-4.714-3.627-7.517-0.395-2.763 0.085-5.587 1.376-8.086 0.747-1.443 1.749-2.753 2.955-3.881 0.341-0.325 0.704-0.345 0.981-0.071 0.224 0.254 0.192 0.64-0.075 0.853-0.011 0.010-0.032 0.020-0.043 0.030-1.461 1.341-2.581 2.976-3.275 4.785-0.853 2.184-1.067 4.541-0.629 6.837 0.021 0.061 0.053 0.122 0.085 0.183 0.277-0.813 0.448-1.666 0.523-2.519 0.032-0.701 0.096-1.392 0.16-2.093 0.053-0.752 0.427-1.443 1.045-1.92 0.256-0.213 0.416-0.518 0.437-0.833 0.096-0.528 0.213-1.056 0.363-1.575 0.149-0.457 0.469-0.853 0.896-1.117 0.427-0.295 0.757-0.183 0.949 0.274 0.139 0.335 0.309 0.67 0.448 1.006 0.139 0.244 0.043 0.559-0.213 0.691-0.011 0.010-0.032 0.020-0.053 0.020-0.277 0.102-0.587-0.020-0.704-0.284-0.011-0.010-0.011-0.030-0.011-0.041-0.064-0.152-0.149-0.284-0.267-0.396-0.085 0.284-0.192 0.559-0.245 0.843-0.085 0.417-0.128 0.843-0.213 1.26-0.021 0.173-0.107 0.345-0.245 0.467-0.821 0.61-1.291 1.554-1.259 2.55 0.011 0.721-0.043 1.443-0.16 2.154-0.213 1.036-0.544 2.042-0.843 3.058-0.075 0.193-0.064 0.416 0.011 0.61 1.419 3.485 4.341 6.217 8.021 7.507 0.075 0.030 0.139 0.041 0.267 0.071 0.096-0.376 0.192-0.741 0.267-1.117 0.32-1.25 0.491-2.54 0.501-3.83-0.096-1.158-0.416-2.286-0.949-3.332-0.256-0.559-0.544-1.107-0.747-1.676-0.331-0.874 0-1.849 0.8-2.377 0.395-0.285 0.821-0.538 1.248-0.792 0.203-0.102 0.331-0.284 0.352-0.508 0.085-0.376 0.043-0.772-0.117-1.128-0.064-0.173-0.096-0.356-0.075-0.538 0-0.173-0.032-0.274-0.235-0.274-0.811 0.010-1.28-0.477-1.675-1.056-0.085-0.152-0.256-0.244-0.437-0.223-0.864 0.030-1.728 0.041-2.592 0.051-0.405 0.010-0.64-0.163-0.651-0.467-0.011-0.325 0.181-0.518 0.597-0.528 1.024-0.020 2.048-0.020 3.072-0.030 0.277-0.010 0.533 0.122 0.661 0.345 0.053 0.091 0.139 0.163 0.192 0.244 0.213 0.437 0.672 0.711 1.173 0.701 0.117 0.010 0.235 0.041 0.341 0.081 0.693 0.203 0.736 0.284 0.64 0.975-0.011 0.173 0.011 0.335 0.064 0.498 0.224 0.681 0.192 1.422-0.107 2.083-0.128 0.213-0.32 0.406-0.544 0.538-0.363 0.254-0.757 0.467-1.12 0.711-0.608 0.295-0.853 1.006-0.544 1.585 0.011 0.020 0.021 0.041 0.032 0.061 0.288 0.66 0.597 1.3 0.896 1.95 0.789 1.747 0.981 3.688 0.555 5.557-0.181 0.904-0.363 1.829-0.555 2.763z"></path>
<path fill="#599cc9" style="fill: var(--color1, #599cc9)" d="M7.887 13.383c0.011-0.193 0.032-0.396 0.331-0.406 0.245-0.010 0.501 0.315 0.491 0.65 0 0.203-0.053 0.396-0.32 0.416-0.256 0.010-0.501-0.305-0.501-0.66z"></path>
<path fill="#599cc9" style="fill: var(--color1, #599cc9)" d="M17.053 3.679c0 0.335-0.235 0.66-0.491 0.65-0.277-0.010-0.331-0.213-0.331-0.437 0-0.335 0.245-0.64 0.512-0.63 0.203 0.010 0.309 0.152 0.309 0.417z"></path>
<path fill="#000" style="fill: var(--color2, #000)" opacity="0.980392" d="M44.081 20.261h-5.321l-0.914 2.597h-2.176l4.553-12.727h2.414l4.553 12.727h-2.194l-0.914-2.597zM43.496 18.56l-2.066-5.906-2.085 5.906h4.151zM54.252 12.617c0.792 0 1.499 0.165 2.121 0.494 0.634 0.329 1.128 0.817 1.481 1.463s0.53 1.426 0.53 2.341v5.943h-2.066v-5.632c0-0.902-0.226-1.591-0.677-2.066-0.451-0.488-1.067-0.731-1.847-0.731s-1.402 0.244-1.865 0.731c-0.451 0.475-0.677 1.164-0.677 2.066v5.632h-2.085v-10.075h2.085v1.152c0.341-0.414 0.774-0.738 1.298-0.969 0.536-0.232 1.103-0.347 1.701-0.347zM62.105 11.447c-0.378 0-0.695-0.128-0.951-0.384s-0.384-0.573-0.384-0.951c0-0.378 0.128-0.695 0.384-0.951s0.573-0.384 0.951-0.384c0.366 0 0.677 0.128 0.933 0.384s0.384 0.573 0.384 0.951c0 0.378-0.128 0.695-0.384 0.951s-0.567 0.384-0.933 0.384zM63.129 12.782v10.075h-2.085v-10.075h2.085zM78.062 12.617c0.792 0 1.499 0.165 2.121 0.494 0.634 0.329 1.128 0.817 1.481 1.463 0.366 0.646 0.549 1.426 0.549 2.341v5.943h-2.066v-5.632c0-0.902-0.226-1.591-0.677-2.066-0.451-0.488-1.067-0.731-1.847-0.731s-1.402 0.244-1.865 0.731c-0.451 0.475-0.677 1.164-0.677 2.066v5.632h-2.066v-5.632c0-0.902-0.226-1.591-0.677-2.066-0.451-0.488-1.067-0.731-1.847-0.731s-1.402 0.244-1.865 0.731c-0.451 0.475-0.677 1.164-0.677 2.066v5.632h-2.085v-10.075h2.085v1.152c0.341-0.414 0.774-0.738 1.298-0.969s1.085-0.347 1.682-0.347c0.805 0 1.524 0.171 2.158 0.512s1.122 0.835 1.463 1.481c0.305-0.61 0.78-1.091 1.426-1.445 0.646-0.366 1.341-0.549 2.085-0.549zM84.171 17.774c0-1.012 0.207-1.908 0.622-2.688 0.427-0.78 1-1.384 1.719-1.81 0.731-0.439 1.536-0.658 2.414-0.658 0.792 0 1.481 0.158 2.066 0.475 0.597 0.305 1.073 0.689 1.426 1.152v-1.463h2.103v10.075h-2.103v-1.499c-0.354 0.475-0.835 0.872-1.445 1.189s-1.304 0.475-2.085 0.475c-0.866 0-1.658-0.219-2.377-0.658-0.719-0.451-1.292-1.073-1.719-1.865-0.414-0.805-0.622-1.713-0.622-2.725zM92.418 17.81c0-0.695-0.146-1.298-0.439-1.81-0.28-0.512-0.652-0.902-1.115-1.17s-0.963-0.402-1.499-0.402c-0.536 0-1.036 0.134-1.499 0.402-0.463 0.256-0.841 0.64-1.134 1.152-0.28 0.5-0.421 1.097-0.421 1.792s0.14 1.304 0.421 1.829c0.293 0.524 0.67 0.926 1.134 1.207 0.475 0.268 0.975 0.402 1.499 0.402 0.536 0 1.036-0.134 1.499-0.402s0.835-0.658 1.115-1.17c0.293-0.524 0.439-1.134 0.439-1.829zM99.343 9.326v13.531h-2.085v-13.531h2.085zM105.737 23.022c-0.792 0-1.506-0.14-2.139-0.421-0.622-0.293-1.115-0.683-1.481-1.17-0.366-0.5-0.561-1.054-0.585-1.664h2.158c0.037 0.427 0.238 0.786 0.603 1.079 0.378 0.28 0.847 0.421 1.408 0.421 0.585 0 1.036-0.11 1.353-0.329 0.329-0.232 0.494-0.524 0.494-0.878 0-0.378-0.183-0.658-0.549-0.841-0.354-0.183-0.92-0.384-1.701-0.603-0.756-0.207-1.371-0.408-1.847-0.603s-0.89-0.494-1.243-0.896c-0.341-0.402-0.512-0.933-0.512-1.591 0-0.536 0.158-1.024 0.475-1.463 0.317-0.451 0.768-0.805 1.353-1.061 0.597-0.256 1.28-0.384 2.048-0.384 1.146 0 2.066 0.293 2.761 0.878 0.707 0.573 1.085 1.359 1.134 2.359h-2.085c-0.037-0.451-0.219-0.811-0.549-1.079s-0.774-0.402-1.335-0.402c-0.549 0-0.969 0.104-1.262 0.311s-0.439 0.482-0.439 0.823c0 0.268 0.098 0.494 0.293 0.677s0.433 0.329 0.713 0.439c0.28 0.098 0.695 0.226 1.243 0.384 0.731 0.195 1.329 0.396 1.792 0.603 0.475 0.195 0.884 0.488 1.225 0.878s0.518 0.908 0.53 1.554c0 0.573-0.158 1.085-0.475 1.536s-0.768 0.805-1.353 1.061c-0.573 0.256-1.25 0.384-2.030 0.384zM120.785 22.985c-0.853 0-1.621-0.146-2.304-0.439-0.683-0.305-1.219-0.731-1.609-1.28s-0.585-1.189-0.585-1.92h2.231c0.049 0.549 0.262 1 0.64 1.353 0.39 0.354 0.933 0.53 1.627 0.53 0.719 0 1.28-0.171 1.682-0.512 0.402-0.354 0.603-0.805 0.603-1.353 0-0.427-0.128-0.774-0.384-1.042-0.244-0.268-0.555-0.475-0.933-0.622-0.366-0.146-0.878-0.305-1.536-0.475-0.829-0.219-1.506-0.439-2.030-0.658-0.512-0.232-0.951-0.585-1.317-1.061s-0.549-1.109-0.549-1.902c0-0.731 0.183-1.371 0.549-1.92s0.878-0.969 1.536-1.262c0.658-0.293 1.42-0.439 2.286-0.439 1.231 0 2.237 0.311 3.017 0.933 0.792 0.61 1.231 1.451 1.317 2.523h-2.304c-0.037-0.463-0.256-0.859-0.658-1.189s-0.933-0.494-1.591-0.494c-0.597 0-1.085 0.152-1.463 0.457s-0.567 0.744-0.567 1.317c0 0.39 0.116 0.713 0.347 0.969 0.244 0.244 0.549 0.439 0.914 0.585s0.866 0.305 1.499 0.475c0.841 0.232 1.524 0.463 2.048 0.695 0.536 0.232 0.987 0.591 1.353 1.079 0.378 0.475 0.567 1.115 0.567 1.92 0 0.646-0.177 1.256-0.53 1.829-0.341 0.573-0.847 1.036-1.518 1.39-0.658 0.341-1.438 0.512-2.341 0.512zM130.065 14.482v5.577c0 0.378 0.085 0.652 0.256 0.823 0.183 0.158 0.488 0.238 0.914 0.238h1.28v1.737h-1.646c-0.939 0-1.658-0.219-2.158-0.658s-0.75-1.152-0.75-2.139v-5.577h-1.189v-1.701h1.189v-2.505h2.103v2.505h2.45v1.701h-2.45zM138.807 23.022c-0.951 0-1.81-0.213-2.578-0.64-0.768-0.439-1.371-1.048-1.81-1.829-0.439-0.792-0.658-1.707-0.658-2.743 0-1.024 0.226-1.932 0.677-2.725s1.067-1.402 1.847-1.829c0.78-0.427 1.652-0.64 2.615-0.64s1.835 0.213 2.615 0.64c0.78 0.427 1.396 1.036 1.847 1.829s0.677 1.701 0.677 2.725c0 1.024-0.232 1.932-0.695 2.725s-1.097 1.408-1.902 1.847c-0.792 0.427-1.67 0.64-2.633 0.64zM138.807 21.211c0.536 0 1.036-0.128 1.499-0.384 0.475-0.256 0.859-0.64 1.152-1.152s0.439-1.134 0.439-1.865c0-0.731-0.14-1.347-0.421-1.847-0.28-0.512-0.652-0.896-1.115-1.152s-0.963-0.384-1.499-0.384c-0.536 0-1.036 0.128-1.499 0.384-0.451 0.256-0.811 0.64-1.079 1.152-0.268 0.5-0.402 1.115-0.402 1.847 0 1.085 0.274 1.926 0.823 2.523 0.561 0.585 1.262 0.878 2.103 0.878zM148.182 14.245c0.305-0.512 0.707-0.908 1.207-1.189 0.512-0.293 1.115-0.439 1.81-0.439v2.158h-0.53c-0.817 0-1.438 0.207-1.865 0.622-0.414 0.414-0.622 1.134-0.622 2.158v5.303h-2.085v-10.075h2.085v1.463zM162.35 17.573c0 0.378-0.024 0.719-0.073 1.024h-7.698c0.061 0.805 0.36 1.451 0.896 1.938s1.195 0.731 1.975 0.731c1.122 0 1.914-0.469 2.377-1.408h2.249c-0.305 0.926-0.859 1.688-1.664 2.286-0.792 0.585-1.78 0.878-2.962 0.878-0.963 0-1.829-0.213-2.597-0.64-0.756-0.439-1.353-1.048-1.792-1.829-0.427-0.792-0.64-1.707-0.64-2.743s0.207-1.944 0.622-2.725c0.427-0.792 1.018-1.402 1.774-1.829 0.768-0.427 1.646-0.64 2.633-0.64 0.951 0 1.798 0.207 2.542 0.622s1.323 1 1.737 1.755c0.414 0.744 0.622 1.603 0.622 2.578zM160.174 16.914c-0.012-0.768-0.286-1.384-0.823-1.847s-1.201-0.695-1.993-0.695c-0.719 0-1.335 0.232-1.847 0.695-0.512 0.451-0.817 1.067-0.914 1.847h5.577z"></path>
</symbol>
<symbol id="icon-minus" viewBox="0 0 32 32">
<path stroke-linejoin="round" stroke-linecap="round" stroke-width="2.667" d="M6.667 16h18.667"/>
</symbol>
 <symbol id="icon-plus" viewBox="0 0 32 32">
<path stroke-linejoin="round" stroke-linecap="round" stroke-width="2.667" d="M16 6.667v18.667M6.667 16h18.667"/>
</symbol>
<symbol id="icon-x-close" viewBox="0 0 32 32">
 <path d="M25 9.093 22.907 7 16 13.907 9.093 7 7 9.093 13.907 16 7 22.907 9.093 25 16 18.093 22.907 25 25 22.907 18.093 16 25 9.093z"/>
</symbol>
<symbol id="icon-shopping-cart" viewBox="0 0 32 32">
 <path d="M4.8 1.6a1.6 1.6 0 0 0 0 3.2h1.952l.488 1.955.016.067 2.173 8.688L8 16.937c-2.016 2.016-.589 5.462 2.262 5.462h13.737a1.6 1.6 0 0 0 0-3.2H10.261l1.6-1.6h10.537a1.602 1.602 0 0 0 1.431-.885l4.8-9.6c.122-.244.18-.515.167-.787s-.094-.537-.237-.769a1.597 1.597 0 0 0-1.36-.759H10.047L9.551 2.81a1.601 1.601 0 0 0-1.552-1.212h-3.2zm20.8 24.8a2.4 2.4 0 1 1-4.799 0 2.4 2.4 0 0 1 4.799 0zm-15.2 2.4a2.401 2.401 0 1 0-.001-4.802A2.401 2.401 0 0 0 10.4 28.8z"/>
</symbol>
<symbol id="icon-search" viewBox="0 0 32 32">
  <path d="M20.667 18.667h-1.053l-.373-.36a8.625 8.625 0 0 0 2.093-5.64 8.668 8.668 0 0 0-5.35-8.007A8.66 8.66 0 0 0 6.54 6.539a8.67 8.67 0 0 0-1.879 9.444 8.671 8.671 0 0 0 8.007 5.35 8.63 8.63 0 0 0 5.64-2.093l.36.373v1.053l6.667 6.653 1.987-1.987-6.653-6.667zm-8 0c-3.32 0-6-2.68-6-6s2.68-6 6-6 6 2.68 6 6-2.68 6-6 6z"/>
</symbol>
<symbol id="icon-arrow-down" viewBox="0 0 32 32">
  <path stroke-linejoin="round" stroke-linecap="round" stroke-width="3.2" d="m8 12 8 8 8-8"/>
</symbol>
<symbol id="icon-organic-food" viewBox="0 0 32 32">
  <path fill="#fdc152" style="fill:var(--color4, #fdc152)" d="M32 16c0 8.837-7.163 16-16 16S0 24.837 0 16 7.163 0 16 0s16 7.163 16 16z"/>
  <path fill="#010101" style="fill:var(--color5, #010101)" d="M25.174 17.182c.104-.813.731-1.233 1.538-1.13s1.308.668 1.204 1.48c-.104.813-.731 1.233-1.538 1.13s-1.308-.668-1.204-1.481zm.437.056c-.065.508.303.823.836.891.538.069.968-.145 1.033-.652s-.297-.823-.836-.891c-.533-.068-.968.145-1.033.652zM27.137 20.516a1.724 1.724 0 0 1-.093.217l-.478-.169.003-.01c.255-.458.065-.966-.461-1.152l-1.26-.446.179-.507 2.466.873-.179.507-.463-.164-.003.01c.263.24.403.518.289.841zM25.819 22.819l-.284.457-2.07-1.286c-.639-.397-.682-.96-.29-1.59.397-.639.951-.784 1.355-.599l-.286.461c-.223-.078-.468-.013-.692.348-.238.383-.185.687.215.935l.27.167.005-.009c-.092-.22-.131-.527.088-.879.346-.557.992-.734 1.692-.299.705.438.828 1.093.482 1.65-.219.352-.511.454-.741.474l-.005.009.261.162zm-1.369-1.676c-.23.37-.124.743.346 1.035s.851.221 1.081-.149c.248-.4.075-.791-.338-1.048-.409-.254-.84-.238-1.089.162zM23.459 24.426c.131.137.311.164.571-.083.312-.296.335-.502.121-.765l.379-.36c.327.381.365.889-.207 1.433-.419.399-.883.535-1.363.031l-.857-.902c-.127-.134-.224-.176-.362-.016l-.176-.186a.8.8 0 0 1 .188-.256c.208-.198.375-.215.588-.065l.007-.007c-.04-.28.066-.6.359-.878.386-.367.835-.37 1.138-.051.395.416.21.838-.176 1.383-.24.334-.383.541-.21.723zm-.544-1.666c-.323.307-.394.678-.101.986l.272.286c.021-.104.131-.294.277-.504.256-.377.309-.604.125-.797-.166-.174-.361-.172-.573.029zM21.582 26.621c-.427.233-.899.171-1.186-.355l-.867-1.586.476-.26.793 1.451c.169.31.408.436.731.26.364-.199.477-.547.29-.888l-.764-1.397.472-.258 1.255 2.296-.472.258-.162-.297-.009.005c-.023.246-.163.556-.558.772zM19.932 27.718c.141-.046.319.004.376.18s-.059.315-.2.361c-.151.049-.322.002-.379-.173s.053-.319.204-.368zm.117-.501-.511.166-.808-2.489.511-.166.808 2.489zM16.83 26.935c.054.261.263.56.72.502.523-.067.689-.542.627-1.03s-.338-.907-.866-.839c-.457.058-.584.395-.568.687l-.533.068c-.036-.604.37-1.105 1.045-1.192.777-.099 1.351.395 1.455 1.208s-.327 1.436-1.099 1.534c-.675.086-1.172-.289-1.314-.87l.533-.068zM11.643 27.731c.328.118.466.124.554-.16l.085-.274-.459-.143.131-.42.459.143.648-2.077.518.162-.648 2.077.357.111-.131.42-.357-.111-.099.318c-.165.528-.447.643-.858.515a1.86 1.86 0 0 1-.331-.141l.131-.42zM11.604 24.07c.717.396.878 1.133.484 1.846s-1.103.971-1.82.575c-.717-.396-.878-1.133-.484-1.846s1.103-.971 1.82-.575zm-.213.385c-.448-.247-.877-.022-1.136.449-.262.475-.222.954.226 1.201s.874.026 1.136-.449c.26-.471.222-.954-.226-1.201z"/>
  <path fill="#010101" style="fill:var(--color5, #010101)" d="M9.701 22.674c.594.564.562 1.318.001 1.909s-1.312.66-1.906.096c-.594-.564-.562-1.318-.001-1.909s1.312-.66 1.906-.096zm-.303.32c-.371-.353-.843-.243-1.213.147-.374.393-.456.866-.085 1.219s.839.247 1.213-.147c.37-.39.456-.866.085-1.219z"/>
  <path fill="#010101" style="fill:var(--color5, #010101)" d="m4.684 22.229-.277-.461 3.138-1.885.277.461-.259.156.005.009a.978.978 0 0 1 .736.49c.345.575.153 1.27-.584 1.713s-1.441.286-1.786-.289c-.208-.347-.178-.664-.078-.885l-.005-.009-1.168.701zm3.196-1.084c-.227-.377-.678-.423-1.174-.125-.5.301-.668.718-.441 1.095.243.404.74.397 1.179.134s.678-.7.436-1.104zM6.849 16.375c.032.819-.517 1.337-1.331 1.368s-1.401-.443-1.432-1.262.517-1.337 1.331-1.368c.813-.031 1.401.443 1.432 1.261zm-.44.017c-.02-.512-.434-.762-.971-.741-.542.021-.931.302-.911.814s.429.762.971.741c.537-.021.931-.302.911-.814zM4.369 13.36c.016-.091.033-.155.057-.229l.499.089-.002.01c-.177.494.093.963.642 1.062l1.315.235-.095.529-2.575-.461.095-.529.484.087.002-.01c-.298-.194-.482-.445-.422-.783zM5.287 10.885l.206-.497 2.252.933c.695.288.828.836.544 1.522-.288.695-.811.928-1.239.811l.208-.501c.232.041.464-.063.626-.455.172-.416.071-.707-.364-.888l-.293-.121-.004.009c.127.202.215.499.056.882-.251.605-.86.885-1.621.57-.766-.317-.995-.944-.744-1.549.159-.383.431-.531.654-.588l.004-.009-.284-.118zm1.623 1.432c.167-.402.002-.753-.509-.965s-.876-.08-1.042.322c-.18.435.054.793.503.979.445.184.868.099 1.048-.336zM7.356 8.912c-.151-.115-.333-.112-.55.173-.261.342-.251.549.003.774l-.316.415c-.384-.324-.502-.82-.024-1.447.351-.46.786-.669 1.34-.247l.99.754c.147.112.249.138.36-.041l.204.155a.817.817 0 0 1-.144.283c-.174.228-.336.272-.571.158l-.006.008c.084.27.03.602-.215.924-.323.424-.766.498-1.116.232-.456-.347-.341-.794-.046-1.393.184-.368.292-.595.092-.747zm.802 1.558c.27-.354.281-.732-.057-.99l-.314-.239c-.004.107-.082.311-.193.541-.192.413-.208.646.003.807.191.146.384.112.561-.12zM8.821 6.462c.383-.3.859-.316 1.228.155l1.116 1.422-.427.335-1.021-1.301c-.218-.278-.474-.364-.764-.136-.326.256-.381.618-.141.924l.983 1.253-.423.332-1.615-2.058.423-.332.209.266.008-.006c-.018-.246.069-.575.424-.853zM10.294 5.089c-.132.068-.315.048-.4-.116s.007-.321.139-.389c.141-.073.318-.055.402.109s0 .323-.141.396zm-.034.514.477-.247 1.204 2.323-.477.247-1.204-2.323zM13.485 5.351c-.096-.249-.351-.51-.792-.377-.505.151-.592.648-.451 1.119s.481.839.991.686c.441-.132.512-.485.448-.77l.515-.154c.134.591-.184 1.151-.837 1.346-.75.225-1.398-.169-1.633-.954s.089-1.47.834-1.693c.652-.195 1.204.094 1.438.643l-.515.154zM18.451 3.719c-.343-.063-.48-.046-.521.248l-.04.284.477.067-.061.436-.477-.067-.301 2.155-.538-.075.301-2.155-.37-.052.061-.436.37.052.046-.33c.076-.548.337-.708.763-.648.132.018.246.05.35.085l-.061.436zM19.096 7.321c-.772-.273-1.051-.975-.779-1.742s.929-1.137 1.702-.864c.772.273 1.051.975.779 1.742s-.929 1.137-1.702.864zm.147-.415c.483.171.869-.122 1.048-.628.181-.512.063-.977-.419-1.148s-.867.117-1.048.628c-.179.507-.063.977.419 1.148z"/>
  <path fill="#010101" style="fill:var(--color5, #010101)" d="M21.17 8.361c-.678-.46-.77-1.209-.313-1.883s1.187-.865 1.865-.405c.678.46.77 1.209.313 1.883s-1.187.865-1.865.405zm.247-.364c.424.287.871.102 1.173-.343.305-.449.308-.929-.115-1.216s-.868-.106-1.173.343c-.302.445-.308.929.115 1.216zM26.247 8.03l.347.411-2.796 2.363-.347-.411.231-.195-.007-.008a.979.979 0 0 1-.805-.365c-.433-.512-.355-1.229.302-1.784s1.376-.513 1.809-.001c.261.309.282.627.218.861l.007.008 1.04-.879zm-2.98 1.582c.284.336.737.309 1.179-.065.446-.377.544-.815.26-1.152-.304-.36-.794-.274-1.186.057s-.558.8-.253 1.16zM17.6 14.72c-2.88.64-3.552 2.614-4.218 4.269l.605.211.304-.736c.154.054.314.096.429.096 3.52 0 4.48-5.44 4.48-5.44-.32.64-2.56.72-4.16 1.04s-2.24 1.68-2.24 2.32c0 .64.56 1.2.56 1.2 1.04-2.96 4.24-2.96 4.24-2.96z"/>
</symbol>
</defs>
</svg>
